<svg width="32" height="24" viewBox="0 0 32 24" fill="none" xmlns="http://www.w3.org/2000/svg">
<path fill-rule="evenodd" clip-rule="evenodd" d="M4.96252 0.733337H27.0506L31.2701 9.87556L30.9998 20.4171C30.9544 22.188 29.5057 23.6 27.7342 23.6H4.20009C2.46098 23.6 1.02678 22.2375 0.937709 20.5006L0.3927 9.87297L4.96252 0.733337ZM1.80416 9.73334H4.62918L6.62918 5.73334H24.7042L26.7042 9.73334H29.8828L26.2828 1.93334H5.70416L1.80416 9.73334ZM9.6 9.73334H5.97082L7.37082 6.93334H23.9625L25.3625 9.73334H21.7333V10.3333C21.7333 12.2187 19.0563 14.4 16 14.4C12.5073 14.4 9.6 12.5243 9.6 10.3333V9.73334ZM30.0425 10.9333H22.877C22.4304 13.334 19.3894 15.6 16 15.6C12.2031 15.6 8.88216 13.6241 8.448 10.9333H1.64865L2.13613 20.4392C2.19248 21.538 3.09984 22.4 4.20009 22.4H27.7342C28.8549 22.4 29.7714 21.5067 29.8002 20.3863L30.0425 10.9333ZM23.6667 4.6H7.66667C7.3353 4.6 7.06667 4.33138 7.06667 4C7.06667 3.66863 7.3353 3.4 7.66667 3.4H23.6667C23.998 3.4 24.2667 3.66863 24.2667 4C24.2667 4.33138 23.998 4.6 23.6667 4.6Z" fill="#286EFA"/>
</svg>
