<svg width="30" height="39" viewBox="0 0 30 39" fill="none" xmlns="http://www.w3.org/2000/svg">
<path fill-rule="evenodd" clip-rule="evenodd" d="M5.00002 0.333374H25C27.2552 0.333374 29.0834 2.16154 29.0834 4.41671V34.4167C29.0834 36.6719 27.2552 38.5 25 38.5H5.00002C2.74486 38.5 0.916687 36.6719 0.916687 34.4167V4.41671C0.916687 2.16154 2.74486 0.333374 5.00002 0.333374ZM5.00002 1.83337C3.57328 1.83337 2.41669 2.98997 2.41669 4.41671V34.4167C2.41669 35.8434 3.57328 37 5.00002 37H25C26.4268 37 27.5834 35.8434 27.5834 34.4167V4.41671C27.5834 2.98997 26.4268 1.83337 25 1.83337H5.00002ZM7.7778 4.41671H23.0556C24.5834 4.41671 25.8334 5.66671 25.8334 7.19449V22.4723C25.8334 24 24.5834 25.25 23.0556 25.25H7.7778C6.25002 25.25 5.00002 24 5.00002 22.4723V7.19449C5.00002 5.66671 6.25002 4.41671 7.7778 4.41671ZM23.0556 5.8056H7.7778C7.01391 5.8056 6.38891 6.4306 6.38891 7.19449V19.8565L13.8658 15.3889C13.8658 15.3658 13.8889 15.3658 13.8889 15.3658C13.9005 15.3658 13.9121 15.36 13.9236 15.3542C13.9352 15.3484 13.9468 15.3426 13.9584 15.3426C13.9699 15.3426 13.9815 15.3368 13.9931 15.3311C14.0047 15.3253 14.0162 15.3195 14.0278 15.3195C14.0509 15.2963 14.0741 15.2963 14.0972 15.2963H14.1667H14.2361H14.3056H14.375C14.3982 15.3195 14.4213 15.3195 14.4445 15.3195C14.456 15.3195 14.4676 15.3253 14.4792 15.3311C14.4908 15.3368 14.5023 15.3426 14.5139 15.3426C14.5255 15.3426 14.5371 15.3484 14.5486 15.3542C14.5602 15.36 14.5718 15.3658 14.5834 15.3658C14.5834 15.3889 14.6065 15.3889 14.6065 15.3889L16.3426 16.4074L19.9537 12.75C19.9537 12.7269 19.9769 12.7269 19.9769 12.7269C19.9884 12.7153 20 12.7095 20.0116 12.7037C20.0232 12.698 20.0347 12.6922 20.0463 12.6806C20.0463 12.6574 20.0695 12.6343 20.0926 12.6343C20.1042 12.6343 20.1158 12.6285 20.1273 12.6227C20.1389 12.6169 20.1505 12.6112 20.1621 12.6112C20.1736 12.6112 20.1852 12.6054 20.1968 12.5996L20.1968 12.5996C20.2084 12.5938 20.2199 12.588 20.2315 12.588C20.2547 12.5649 20.2778 12.5649 20.3009 12.5649C20.3241 12.5417 20.3472 12.5417 20.3704 12.5417H20.4398H20.5093H20.5787H20.6482C20.6597 12.5417 20.6713 12.5475 20.6829 12.5533C20.6945 12.5591 20.706 12.5649 20.7176 12.5649C20.7292 12.5649 20.7408 12.5706 20.7523 12.5764C20.7639 12.5822 20.7755 12.588 20.7871 12.588H20.8102L24.4445 14.3936V7.19449C24.4445 6.4306 23.8195 5.8056 23.0556 5.8056ZM23.0556 23.8612H7.7778C7.01391 23.8612 6.38891 23.2362 6.38891 22.4723V21.4769L14.2593 16.801L19.4676 19.8334C19.5834 19.9028 19.6991 19.926 19.8148 19.926C20.0463 19.926 20.2778 19.8102 20.4167 19.5787C20.6019 19.2547 20.5093 18.8149 20.1621 18.6297L17.5695 17.125L20.625 14.0695L24.4445 15.9676V22.4723C24.4445 23.2362 23.8195 23.8612 23.0556 23.8612ZM13.1019 11.3612C13.1019 12.6343 12.0602 13.676 10.7871 13.676C9.51391 13.676 8.47224 12.6343 8.47224 11.3612C8.47224 10.088 9.51391 9.04634 10.7871 9.04634C12.0602 9.04634 13.1019 10.088 13.1019 11.3612ZM10.7871 10.4352C11.2963 10.4352 11.713 10.8519 11.713 11.3612C11.713 11.8704 11.2963 12.2871 10.7871 12.2871C10.2778 12.2871 9.86113 11.8704 9.86113 11.3612C9.86113 10.8519 10.2778 10.4352 10.7871 10.4352ZM6.25002 29.3334H21.6667C22.0809 29.3334 22.4167 28.9976 22.4167 28.5834C22.4167 28.1692 22.0809 27.8334 21.6667 27.8334H6.25002C5.83581 27.8334 5.50002 28.1692 5.50002 28.5834C5.50002 28.9976 5.83581 29.3334 6.25002 29.3334ZM15 33.5H6.25002C5.83581 33.5 5.50002 33.1643 5.50002 32.75C5.50002 32.3358 5.83581 32 6.25002 32H15C15.4142 32 15.75 32.3358 15.75 32.75C15.75 33.1643 15.4142 33.5 15 33.5Z" fill="#222222"/>
</svg>
