<svg width="40" height="48" viewBox="0 0 40 48" fill="none" xmlns="http://www.w3.org/2000/svg">
<path fill-rule="evenodd" clip-rule="evenodd" d="M10 10C10 8.89543 10.8954 8 12 8H34.6667C35.7712 8 36.6667 8.89543 36.6667 10V29C36.6667 30.1046 35.7712 31 34.6667 31H28.75L27.0833 37.5L22.0833 31H12C10.8954 31 10 30.1046 10 29V10Z" stroke="#222222" stroke-width="1.8"/>
<path d="M9.99998 25H5.58331C5.03103 25 4.58331 25.4477 4.58331 26V36.5C4.58331 37.0523 5.03103 37.5 5.58331 37.5H8.33331L9.16665 43L13.75 37.5H19C19.5523 37.5 20 37.0523 20 36.5V31" stroke="#222222" stroke-width="1.8"/>
<path d="M14.5833 17H25.4166" stroke="#222222" stroke-width="1.8" stroke-linecap="round"/>
<path d="M14.5833 22.5H31.6666" stroke="#222222" stroke-width="1.8" stroke-linecap="round"/>
</svg>
