<svg width="20" height="22" viewBox="0 0 20 22" fill="none" xmlns="http://www.w3.org/2000/svg">
<path d="M13.3062 7.14608C13.6837 6.76859 13.6837 6.15663 13.3062 5.77897C12.9287 5.40148 12.3166 5.40148 11.9391 5.77897L4.11577 13.6023C2.9301 14.7881 2.9301 16.7175 4.11594 17.9032C4.70877 18.496 5.48758 18.7925 6.26622 18.7925C7.04503 18.7925 7.82384 18.496 8.41667 17.9032L12.1551 14.1649L12.1553 14.1648L18.4477 7.87219C20.2462 6.07371 20.2462 3.1473 18.4477 1.34883C16.6492 -0.449652 13.7228 -0.449484 11.9243 1.34883L3.2861 9.98705C3.27049 10.0025 3.25656 10.0191 3.24229 10.0354L1.826 11.4517C0.662323 12.6154 0.0214844 14.1681 0.0214844 15.8236C0.0214844 17.4791 0.662323 19.0316 1.826 20.1953C2.98969 21.359 4.54227 21.9998 6.19774 21.9998C7.85321 21.9998 9.40596 21.359 10.5696 20.1953L17.692 13.0729C18.0695 12.6954 18.0695 12.0833 17.692 11.7058C17.3146 11.3281 16.7024 11.3281 16.3249 11.7058L9.20236 18.8282C8.40392 19.6268 7.33691 20.0664 6.19774 20.0664C5.05856 20.0664 3.99156 19.6268 3.19312 18.8282C2.3945 18.0298 1.95474 16.9626 1.95474 15.8236C1.95474 14.6844 2.3945 13.6174 3.19312 12.8188L10.3155 5.69639C10.3311 5.68078 10.3452 5.66416 10.3595 5.64771L13.2913 2.71594C14.336 1.67126 16.0359 1.67126 17.0804 2.71577C18.1251 3.76045 18.1251 5.4604 17.0804 6.50508L14.8732 8.71226C14.8731 8.71243 14.8729 8.71259 14.8727 8.71276L7.04956 16.5361C6.61769 16.968 5.91492 16.968 5.48305 16.5361C5.05101 16.1042 5.05101 15.4015 5.48305 14.9694L13.3062 7.14608Z" fill="#939393"/>
</svg>
