<svg width="16" height="14" viewBox="0 0 16 14" fill="none" xmlns="http://www.w3.org/2000/svg">
<path d="M1.5179 6.58559C3.0417 9.15092 7.04387 12.2745 7.99983 13C8.95579 12.2745 12.958 9.15092 14.4818 6.58577C14.4835 6.5829 14.4852 6.57986 14.4869 6.57683C14.8225 6.00478 15 5.34673 15 4.67348C15 2.64782 13.4074 1 11.4501 1C10.1471 1 8.95095 1.73673 8.32833 2.92284C8.26301 3.04748 8.13686 3.12491 8 3.12491C7.86314 3.12491 7.73699 3.04748 7.67167 2.92284C7.04905 1.73673 5.85289 1 4.54994 1C2.5924 1 1 2.64799 1 4.67348C1 5.34673 1.1773 6.00478 1.51306 6.57683C1.51444 6.57969 1.51617 6.58273 1.5179 6.58559Z" fill="#E5153B" stroke="#E5153B"/>
</svg>
