<svg width="35" height="20" viewBox="0 0 35 20" fill="none" xmlns="http://www.w3.org/2000/svg">
<path fill-rule="evenodd" clip-rule="evenodd" d="M24.0014 0C18.4778 0 14.0014 4.47679 14.0014 10C14.0014 15.5236 18.4781 20 24.0014 20C29.5249 20 34.0014 15.5232 34.0014 10C34.0014 4.47642 29.5246 0 24.0014 0ZM0 3C0 3.55228 0.447715 4 1 4H10.0027C10.555 4 11.0027 3.55228 11.0027 3C11.0027 2.44772 10.555 2 10.0027 2H1C0.447715 2 0 2.44772 0 3ZM4 17C4 17.5523 4.44771 18 5 18H10.0027C10.555 18 11.0027 17.5523 11.0027 17C11.0027 16.4477 10.555 16 10.0027 16H5C4.44771 16 4 16.4477 4 17ZM3 11C2.44772 11 2 10.5523 2 10C2 9.44772 2.44772 9 3 9H10.0027C10.555 9 11.0027 9.44772 11.0027 10C11.0027 10.5523 10.555 11 10.0027 11H3ZM16.0014 10C16.0014 14.419 19.5827 18 24.0014 18C28.4203 18 32.0014 14.4187 32.0014 10C32.0014 5.58103 28.42 2 24.0014 2C19.5824 2 16.0014 5.58133 16.0014 10ZM25.0014 10.0858V6.5C25.0014 5.94772 24.5536 5.5 24.0014 5.5C23.4491 5.5 23.0014 5.94772 23.0014 6.5V10.5C23.0014 10.7652 23.1067 11.0196 23.2942 11.2071L25.7942 13.7071C26.1848 14.0976 26.8179 14.0976 27.2085 13.7071C27.599 13.3166 27.599 12.6834 27.2085 12.2929L25.0014 10.0858Z" fill="#939393"/>
</svg>
