<svg width="16" height="16" viewBox="0 0 16 16" fill="none" xmlns="http://www.w3.org/2000/svg">
<path fill-rule="evenodd" clip-rule="evenodd" d="M16 8C16 12.4183 12.4183 16 8 16C3.58172 16 0 12.4183 0 8C0 3.58172 3.58172 0 8 0C12.4183 0 16 3.58172 16 8ZM12.5 5.5C12.5 5.77614 12.2761 6 12 6H4C3.72386 6 3.5 5.77614 3.5 5.5C3.5 5.22386 3.72386 5 4 5H12C12.2761 5 12.5 5.22386 12.5 5.5ZM11 9C11.2761 9 11.5 8.77614 11.5 8.5C11.5 8.22386 11.2761 8 11 8H5C4.72386 8 4.5 8.22386 4.5 8.5C4.5 8.77614 4.72386 9 5 9H11ZM9.5 11.5C9.5 11.7761 9.27614 12 9 12H7C6.72386 12 6.5 11.7761 6.5 11.5C6.5 11.2239 6.72386 11 7 11H9C9.27614 11 9.5 11.2239 9.5 11.5Z" fill="#323232"/>
</svg>
