<svg width="20" height="21" viewBox="0 0 20 21" fill="none" xmlns="http://www.w3.org/2000/svg">
<path d="M19 10.2727C19 15.2433 14.9706 19.2727 10 19.2727C5.02944 19.2727 1 15.2433 1 10.2727C1 5.30217 5.02944 1.27273 10 1.27273C14.9706 1.27273 19 5.30217 19 10.2727Z" stroke="#979797" stroke-width="2"/>
<path fill-rule="evenodd" clip-rule="evenodd" d="M6.59091 9.36363C7.46954 9.36363 8.18182 8.65136 8.18182 7.77273C8.18182 6.89409 7.46954 6.18182 6.59091 6.18182C5.71227 6.18182 5 6.89409 5 7.77273C5 8.65136 5.71227 9.36363 6.59091 9.36363Z" fill="#979797"/>
<path fill-rule="evenodd" clip-rule="evenodd" d="M13.4091 9.36363C14.2877 9.36363 15 8.65136 15 7.77273C15 6.89409 14.2877 6.18182 13.4091 6.18182C12.5305 6.18182 11.8182 6.89409 11.8182 7.77273C11.8182 8.65136 12.5305 9.36363 13.4091 9.36363Z" fill="#979797"/>
<path d="M6.36364 12.8182C6.36364 12.8182 8 14.6364 10 14.6364C12 14.6364 13.6364 12.8182 13.6364 12.8182" stroke="#979797" stroke-width="2" stroke-linecap="round"/>
</svg>
