<svg width="20" height="20" viewBox="0 0 20 20" fill="none" xmlns="http://www.w3.org/2000/svg">
<path fill-rule="evenodd" clip-rule="evenodd" d="M15.0633 13.4406C14.8324 14.0134 13.7878 14.5358 13.3269 14.5596C12.866 14.5844 12.8531 14.9171 10.3427 13.8264C7.83319 12.7358 6.32308 10.0834 6.20393 9.91202C6.08479 9.74246 5.23137 8.52626 5.27755 7.30272C5.32373 6.07919 5.99427 5.50179 6.23349 5.26166C6.47178 5.02062 6.7461 4.96838 6.91327 4.9748C7.08045 4.98121 7.2467 5.00871 7.39263 5.01329C7.53948 5.01879 7.75099 4.94455 7.94126 5.44955C8.1306 5.95546 8.58594 7.19732 8.64413 7.3238C8.70232 7.4512 8.73834 7.59784 8.64875 7.76006C8.55823 7.9232 8.51298 8.02493 8.38182 8.16607C8.25159 8.3063 8.10659 8.48043 7.98929 8.58766C7.85906 8.70681 7.72328 8.83604 7.8609 9.09083C7.9976 9.3447 8.46957 10.1778 9.18999 10.8652C10.1145 11.7469 10.9125 12.0401 11.1582 12.174C11.4048 12.3078 11.5517 12.2931 11.7041 12.1318C11.8565 11.9714 12.358 11.4288 12.5344 11.1869C12.7108 10.944 12.8761 10.9917 13.1034 11.0833C13.3296 11.175 14.5387 11.822 14.7843 11.9558C15.0309 12.0896 15.1953 12.1584 15.2545 12.2638C15.3126 12.3701 15.2942 12.8677 15.0633 13.4406ZM10.182 19.4849C8.46033 19.4849 6.84308 19.0441 5.43641 18.2724L0 20L1.77242 14.7732C0.87836 13.304 0.363905 11.5828 0.363905 9.74246C0.363905 4.36165 4.7594 0 10.182 0C15.6036 0 20 4.36165 20 9.74246C20 15.1224 15.6036 19.4849 10.182 19.4849ZM10.182 1.63138C5.6747 1.63138 2.00794 5.26991 2.00794 9.74246C2.00794 11.5168 2.58613 13.1601 3.56516 14.4973L2.54364 17.5089L5.68486 16.5118C6.97515 17.3586 8.52129 17.8526 10.182 17.8526C14.6883 17.8526 18.355 14.2141 18.355 9.74246C18.355 5.26991 14.6883 1.63138 10.182 1.63138Z" fill="#9F9F9F"/>
</svg>
